<svg width="49" height="49" viewBox="0 0 49 49" fill="none" xmlns="http://www.w3.org/2000/svg">
<path d="M48.2624 23.9995C48.3964 36.1203 39.5225 46.2401 27.8687 47.9952C26.7791 48.1586 25.6634 48.25 24.53 48.2625C23.2217 48.277 21.9359 48.1869 20.6825 47.999C9.23424 46.2857 0.39736 36.4743 0.265315 24.5301C0.11879 11.276 10.7452 0.411972 23.9977 0.265465C37.2502 0.118958 48.1159 10.7454 48.2624 23.9995Z" fill="#1877F2"/>
<path d="M27.5537 19.4975L27.6115 24.7255L34.0788 24.654L33.1326 31.7077L27.6893 31.7679L27.8687 47.9934C26.779 48.1568 25.6633 48.2481 24.5299 48.2607C23.2217 48.2751 21.9358 48.1851 20.6825 47.9971L20.504 31.8473L14.5394 31.9133L14.4616 24.8708L20.4261 24.8049L20.3554 18.4082C20.3115 14.4397 23.4928 11.1856 27.463 11.1417L27.463 11.1451C27.4748 11.145 27.4848 11.1415 27.4966 11.1413L33.9303 11.0702L33.9976 17.1609L29.7937 17.2073C28.5443 17.2212 27.5415 18.2464 27.5553 19.4958L27.5537 19.4975Z" fill="white"/>
</svg>
