<svg width="49" height="49" viewBox="0 0 49 49" fill="none" xmlns="http://www.w3.org/2000/svg">
<path d="M24.0532 0.264852L23.9439 0.26606C10.72 0.412251 0.118511 11.2508 0.264702 24.4746L0.26591 24.5839C0.412101 37.8078 11.2507 48.4093 24.4745 48.2631L24.5838 48.2619C37.8076 48.1157 48.4092 37.2772 48.263 24.0533L48.2618 23.944C48.1156 10.7202 37.277 0.118661 24.0532 0.264852Z" fill="url(#paint0_linear_47_5)"/>
<path d="M31.5331 9.94838L16.6814 10.1126C12.5784 10.1579 9.27738 13.5327 9.32274 17.6358L9.47295 31.2229C9.5183 35.3259 12.8931 38.6269 16.9962 38.5816L31.8478 38.4174C35.9508 38.372 39.2518 34.9972 39.2065 30.8942L39.0563 17.3071C39.0109 13.204 35.6361 9.90302 31.5331 9.94838ZM11.9477 17.6068C11.9183 14.9516 14.0552 12.7668 16.7104 12.7375L31.5621 12.5733C34.2173 12.544 36.402 14.6809 36.4313 17.3361L36.5815 30.9232C36.6109 33.5784 34.474 35.7631 31.8188 35.7924L16.9671 35.9566C14.3119 35.986 12.1272 33.849 12.0979 31.1938L11.9477 17.6068Z" fill="white"/>
<path d="M24.3412 31.1846C28.1567 31.1424 31.2283 28.0039 31.1861 24.1868C31.1439 20.3696 28.0054 17.2997 24.1882 17.3419C20.371 17.3841 17.3012 20.5226 17.3434 24.3398C17.3856 28.157 20.5241 31.2268 24.3412 31.1846ZM24.2172 19.9686C26.5866 19.9424 28.5349 21.8481 28.5611 24.2175C28.5873 26.5868 26.6816 28.5352 24.3122 28.5614C21.9429 28.5876 19.9945 26.6818 19.9683 24.3125C19.9421 21.9431 21.8479 19.9947 24.2172 19.9686Z" fill="white"/>
<path d="M31.7625 18.3766C32.79 18.3652 33.6182 17.5202 33.6068 16.4911C33.5954 15.462 32.7504 14.6355 31.7213 14.6469C30.6922 14.6582 29.8657 15.5032 29.8771 16.5323C29.8884 17.5615 30.7334 18.388 31.7625 18.3766Z" fill="white"/>
<defs>
<linearGradient id="paint0_linear_47_5" x1="7.46524" y1="41.4382" x2="41.0625" y2="7.0915" gradientUnits="userSpaceOnUse">
<stop stop-color="#FAAD4F"/>
<stop offset="0.35" stop-color="#DD2A7B"/>
<stop offset="0.62" stop-color="#9537B0"/>
<stop offset="1" stop-color="#515BD4"/>
</linearGradient>
</defs>
</svg>
