<svg width="49" height="49" viewBox="0 0 49 49" fill="none" xmlns="http://www.w3.org/2000/svg">
<path d="M24.0532 0.257039L23.9439 0.258247C10.72 0.404438 0.118511 11.243 0.264702 24.4668L0.26591 24.5761C0.412101 37.8 11.2507 48.4015 24.4745 48.2553L24.5838 48.2541C37.8076 48.1079 48.4092 37.2694 48.263 24.0455L48.2618 23.9362C48.1156 10.7124 37.277 0.110848 24.0532 0.257039Z" fill="url(#paint0_linear_47_11)"/>
<path d="M38.553 24.0974L38.5539 24.1798C38.5912 31.0494 33.7411 36.8429 27.2564 38.2298C26.8168 38.3221 26.3719 38.396 25.9184 38.4497C25.428 38.5056 24.9272 38.5397 24.4227 38.5453C22.4384 38.5673 20.5439 38.1829 18.8172 37.467L12.1945 38.2466C11.0642 38.3802 10.2157 37.2342 10.6734 36.1932L12.4122 32.2268C10.9025 29.9916 10.0067 27.3056 9.97473 24.4133C9.88766 16.5368 16.2286 10.0541 24.1068 9.96702C31.5561 9.88467 37.7555 15.5476 38.4818 22.8251C38.5251 23.2417 38.5483 23.6703 38.553 24.0974Z" fill="white"/>
<path d="M31.0877 20.0071C31.7226 19.4753 32.6107 20.2509 32.1678 20.9504L29.219 25.6112L27.6587 28.0771C27.3264 28.6022 26.6182 28.7345 26.118 28.365L23.4642 26.398L21.8279 25.1867C21.6957 25.089 21.5124 25.0944 21.3858 25.2L17.4397 28.4928C16.8048 29.0229 15.9184 28.2473 16.3614 27.5478L19.1234 23.185L20.6837 20.7191C21.0159 20.1941 21.7242 20.0618 22.2244 20.4313L24.8001 22.3386L26.4347 23.5482C26.5686 23.646 26.7519 23.6406 26.8786 23.5349L31.0877 20.0054L31.0877 20.0071Z" fill="url(#paint1_linear_47_11)"/>
<defs>
<linearGradient id="paint0_linear_47_11" x1="7.46524" y1="41.4303" x2="41.0608" y2="7.08371" gradientUnits="userSpaceOnUse">
<stop stop-color="#0498FA"/>
<stop offset="0.34" stop-color="#5C5EFE"/>
<stop offset="0.73" stop-color="#F44E90"/>
<stop offset="1" stop-color="#FA8679"/>
</linearGradient>
<linearGradient id="paint1_linear_47_11" x1="18.3749" y1="30.3224" x2="30.2036" y2="18.2291" gradientUnits="userSpaceOnUse">
<stop stop-color="#0498FA"/>
<stop offset="0.34" stop-color="#5C5EFE"/>
<stop offset="0.73" stop-color="#F44E90"/>
<stop offset="1" stop-color="#FA8679"/>
</linearGradient>
</defs>
</svg>
