<svg width="49" height="49" viewBox="0 0 49 49" fill="none" xmlns="http://www.w3.org/2000/svg">
<path d="M24.0532 0.264852L23.9439 0.26606C10.72 0.412251 0.118511 11.2508 0.264702 24.4746L0.26591 24.5839C0.412101 37.8078 11.2507 48.4093 24.4745 48.2631L24.5838 48.2619C37.8076 48.1157 48.4092 37.2772 48.263 24.0533L48.2618 23.944C48.1156 10.7202 37.277 0.118661 24.0532 0.264852Z" fill="#00E510"/>
<path d="M28.8351 30.227C22.6923 30.2949 17.6394 25.3509 17.5698 19.2081C17.5543 17.651 18.8082 16.3707 20.3619 16.3536C20.5217 16.3518 20.6799 16.3635 20.8315 16.3887C21.1651 16.4405 21.4825 16.5497 21.7753 16.7163C21.8176 16.7411 21.8466 16.7811 21.8539 16.8281L22.5482 20.9122C22.5571 20.9609 22.5425 21.0081 22.511 21.0438C22.1572 21.4446 21.7029 21.7355 21.195 21.8841L20.9503 21.9558L21.0454 22.1919C21.9064 24.3148 23.6303 25.9994 25.7735 26.8166L26.0117 26.9081L26.0779 26.6619C26.2152 26.1508 26.496 25.6902 26.8889 25.3277C26.9172 25.3004 26.9557 25.2866 26.9944 25.2861C27.0028 25.286 27.0112 25.286 27.0213 25.2875L31.1197 25.8914C31.1686 25.8993 31.2093 25.9257 31.235 25.9675C31.4063 26.2565 31.5225 26.5731 31.5834 26.9054C31.6119 27.0531 31.6254 27.2094 31.6272 27.3725C31.6444 28.9279 30.3922 30.2081 28.8351 30.227Z" fill="#FDFDFD"/>
<path d="M39.6357 21.7391C39.2631 17.9996 37.5095 14.5461 34.6982 12.0158C31.8699 9.47061 28.222 8.09152 24.4233 8.13351C16.0861 8.22568 9.37762 15.0841 9.46979 23.4214C9.50072 26.2195 10.3027 28.9368 11.7902 31.295L8.61108 38.545L19.0329 37.3181C20.8556 38.0413 22.7801 38.3967 24.7559 38.3749C25.2755 38.3692 25.8083 38.3364 26.3424 38.2749C26.8127 38.2193 27.2878 38.14 27.7542 38.0407C34.7205 36.5527 39.7488 30.2998 39.7104 23.1678L39.7095 23.0871C39.7044 22.633 39.6792 22.1792 39.634 21.7391L39.6357 21.7391ZM19.3998 34.1473L13.6338 34.8265L15.3152 30.9886L14.9654 30.53C14.9398 30.4967 14.9142 30.4633 14.8852 30.4249C13.3657 28.3748 12.5484 25.9419 12.5202 23.3893C12.4466 16.7337 17.8014 11.2591 24.457 11.1856C30.6923 11.1166 36.0313 15.923 36.6094 22.1274C36.64 22.46 36.6589 22.7945 36.6625 23.1241C36.6635 23.2183 36.6629 23.3108 36.6623 23.41C36.596 28.9791 32.7588 33.7507 27.3306 35.0148C26.9163 35.1119 26.4916 35.1872 26.0684 35.2373C25.6283 35.2926 25.1763 35.3229 24.7273 35.3278C23.1281 35.3455 21.5709 35.0533 20.0962 34.4574C19.9323 34.3936 19.7718 34.3248 19.6213 34.2541L19.4016 34.1506L19.3998 34.1473Z" fill="#FDFDFD"/>
</svg>
